<svg data-v-423bf9ae="" xmlns="http://www.w3.org/2000/svg" viewBox="0 0 1666.2777777777778 1335" class="iconAbove"><!----><!----><!----><g data-v-423bf9ae="" id="b00e2e51-15e5-4113-850d-8039176584a3" fill="black" transform="matrix(5.8365760270947415,0,0,5.8365760270947415,381.6213244645128,1253.6326409407961)"><path d="M3.12 13.75L2.31 13.75L0.73 3.95L1.69 3.95L2.67 10.74L2.67 10.74Q2.69 10.84 2.71 11.05L2.71 11.05L2.71 11.05Q2.73 11.26 2.74 11.33L2.74 11.33L2.74 11.33Q2.80 10.92 2.83 10.74L2.83 10.74L3.92 3.95L4.73 3.95L5.82 10.65L5.82 10.65Q5.84 10.74 5.86 10.91L5.86 10.91L5.86 10.91Q5.88 11.09 5.89 11.16L5.89 11.16L5.89 11.16Q5.91 11.05 5.94 10.86L5.94 10.86L5.95 10.67L6.94 3.95L7.90 3.95L6.31 13.75L5.50 13.75L4.41 7.10L4.41 7.10Q4.38 6.93 4.33 6.48L4.33 6.48L4.33 6.48Q4.27 6.89 4.24 7.07L4.24 7.07L3.12 13.75ZM16.00 9.88L16.00 9.88L16.00 9.88Q16.00 10.26 15.97 10.57L15.97 10.57L10.91 10.57L10.91 10.57Q11.05 11.72 11.62 12.36L11.62 12.36L11.62 12.36Q12.19 13.01 13.12 13.01L13.12 13.01L13.12 13.01Q14.03 13.01 14.83 12.45L14.83 12.45L15.36 13.10L15.36 13.10Q14.32 13.92 13.08 13.92L13.08 13.92L13.08 13.92Q11.61 13.92 10.74 12.83L10.74 12.83L10.74 12.83Q9.87 11.75 9.87 10.16L9.87 10.16L9.87 10.16Q9.87 8.40 10.74 7.41L10.74 7.41L10.74 7.41Q11.61 6.43 13.08 6.43L13.08 6.43L13.08 6.43Q14.35 6.43 15.18 7.30L15.18 7.30L15.18 7.30Q16.00 8.18 16.00 9.88ZM10.88 9.69L10.88 9.69L15.01 9.69L15.01 9.69Q14.99 8.39 14.41 7.85L14.41 7.85L14.41 7.85Q13.83 7.31 13.08 7.31L13.08 7.31L13.08 7.31Q12.04 7.31 11.49 7.94L11.49 7.94L11.49 7.94Q10.93 8.57 10.88 9.69ZM21.85 13.92L21.85 13.92L21.85 13.92Q21.34 13.92 20.91 13.78L20.91 13.78L20.91 13.78Q20.48 13.64 20.28 13.50L20.28 13.50L20.28 13.50Q20.08 13.36 19.77 13.10L19.77 13.10L19.77 13.75L18.79 13.75L18.79 4.13L19.77 3.64L19.77 7.29L19.77 7.29Q20.57 6.43 21.77 6.43L21.77 6.43L21.77 6.43Q23.17 6.43 24.00 7.42L24.00 7.42L24.00 7.42Q24.82 8.41 24.82 10.16L24.82 10.16L24.82 10.16Q24.82 11.97 24.04 12.94L24.04 12.94L24.04 12.94Q23.25 13.92 21.85 13.92ZM21.70 13.03L21.70 13.03L21.70 13.03Q22.74 13.03 23.27 12.28L23.27 12.28L23.27 12.28Q23.80 11.52 23.80 10.16L23.80 10.16L23.80 10.16Q23.80 8.78 23.27 8.04L23.27 8.04L23.27 8.04Q22.74 7.31 21.70 7.31L21.70 7.31L21.70 7.31Q21.03 7.31 20.52 7.64L20.52 7.64L20.52 7.64Q20.01 7.98 19.77 8.40L19.77 8.40L19.77 11.91L19.77 11.91Q20.06 12.43 20.58 12.73L20.58 12.73L20.58 12.73Q21.10 13.03 21.70 13.03ZM30.67 13.75L29.69 13.75L29.69 4.89L26.89 4.89L26.89 3.95L33.47 3.95L33.47 4.89L30.67 4.89L30.67 13.75ZM41.21 12.92L41.21 12.92L41.21 12.92Q40.31 13.92 38.81 13.92L38.81 13.92L38.81 13.92Q37.31 13.92 36.41 12.93L36.41 12.93L36.41 12.93Q35.50 11.94 35.50 10.18L35.50 10.18L35.50 10.18Q35.50 8.43 36.41 7.43L36.41 7.43L36.41 7.43Q37.31 6.43 38.81 6.43L38.81 6.43L38.81 6.43Q40.31 6.43 41.21 7.41L41.21 7.41L41.21 7.41Q42.11 8.40 42.11 10.16L42.11 10.16L42.11 10.16Q42.11 11.91 41.21 12.92ZM38.81 13.03L38.81 13.03L38.81 13.03Q39.89 13.03 40.49 12.27L40.49 12.27L40.49 12.27Q41.09 11.51 41.09 10.16L41.09 10.16L41.09 10.16Q41.09 8.81 40.50 8.06L40.50 8.06L40.50 8.06Q39.91 7.31 38.81 7.31L38.81 7.31L38.81 7.31Q37.69 7.31 37.11 8.04L37.11 8.04L37.11 8.04Q36.53 8.78 36.53 10.18L36.53 10.18L36.53 10.18Q36.53 11.54 37.11 12.29L37.11 12.29L37.11 12.29Q37.70 13.03 38.81 13.03ZM49.14 6.43L49.14 6.43L49.14 6.43Q50.16 6.43 50.65 6.75L50.65 6.75L50.65 9.14L49.66 9.14L49.66 7.48L49.66 7.48Q49.41 7.43 49.07 7.43L49.07 7.43L49.07 7.43Q48.01 7.43 47.17 7.97L47.17 7.97L47.17 7.97Q46.34 8.51 46.34 9.45L46.34 9.45L46.34 12.87L48.48 12.87L48.48 13.75L43.83 13.75L43.83 12.87L45.32 12.87L45.32 7.48L43.83 7.48L43.83 6.59L46.28 6.59L46.28 7.85L46.28 7.85Q46.69 7.21 47.52 6.82L47.52 6.82L47.52 6.82Q48.34 6.43 49.14 6.43ZM57.76 6.43L57.76 6.43L57.76 6.43Q58.79 6.43 59.28 6.75L59.28 6.75L59.28 9.14L58.28 9.14L58.28 7.48L58.28 7.48Q58.03 7.43 57.69 7.43L57.69 7.43L57.69 7.43Q56.63 7.43 55.80 7.97L55.80 7.97L55.80 7.97Q54.96 8.51 54.96 9.45L54.96 9.45L54.96 12.87L57.11 12.87L57.11 13.75L52.46 13.75L52.46 12.87L53.94 12.87L53.94 7.48L52.46 7.48L52.46 6.59L54.91 6.59L54.91 7.85L54.91 7.85Q55.31 7.21 56.14 6.82L56.14 6.82L56.14 6.82Q56.97 6.43 57.76 6.43ZM67.75 9.88L67.75 9.88L67.75 9.88Q67.75 10.26 67.72 10.57L67.72 10.57L62.65 10.57L62.65 10.57Q62.79 11.72 63.36 12.36L63.36 12.36L63.36 12.36Q63.94 13.01 64.86 13.01L64.86 13.01L64.86 13.01Q65.77 13.01 66.57 12.45L66.57 12.45L67.10 13.10L67.10 13.10Q66.07 13.92 64.82 13.92L64.82 13.92L64.82 13.92Q63.35 13.92 62.48 12.83L62.48 12.83L62.48 12.83Q61.61 11.75 61.61 10.16L61.61 10.16L61.61 10.16Q61.61 8.40 62.48 7.41L62.48 7.41L62.48 7.41Q63.35 6.43 64.82 6.43L64.82 6.43L64.82 6.43Q66.09 6.43 66.92 7.30L66.92 7.30L66.92 7.30Q67.75 8.18 67.75 9.88ZM62.62 9.69L62.62 9.69L66.75 9.69L66.75 9.69Q66.74 8.39 66.16 7.85L66.16 7.85L66.16 7.85Q65.58 7.31 64.82 7.31L64.82 7.31L64.82 7.31Q63.78 7.31 63.23 7.94L63.23 7.94L63.23 7.94Q62.68 8.57 62.62 9.69ZM73.44 6.43L73.44 6.43L73.44 6.43Q74.82 6.43 75.45 7.22L75.45 7.22L75.45 7.22Q76.09 8.02 76.09 9.79L76.09 9.79L76.09 13.75L75.11 13.75L75.11 9.38L75.11 9.38Q75.11 8.30 74.63 7.81L74.63 7.81L74.63 7.81Q74.16 7.31 73.36 7.31L73.36 7.31L73.36 7.31Q71.51 7.31 71.51 9.35L71.51 9.35L71.51 13.75L70.53 13.75L70.53 6.59L71.46 6.59L71.46 7.45L71.46 7.45Q72.13 6.43 73.44 6.43ZM82.57 13.92L82.57 13.92L82.57 13.92Q80.88 13.92 80.88 12.21L80.88 12.21L80.88 7.48L79.18 7.48L79.18 6.59L80.88 6.59L80.88 4.13L81.86 3.64L81.86 6.59L84.25 6.59L84.25 7.48L81.86 7.48L81.86 11.79L81.86 11.79Q81.86 12.39 82.06 12.69L82.06 12.69L82.06 12.69Q82.26 12.99 82.91 12.99L82.91 12.99L82.91 12.99Q83.65 12.99 84.27 12.57L84.27 12.57L84.15 13.59L84.15 13.59Q83.55 13.92 82.57 13.92ZM99.67 13.75L98.69 13.75L98.69 4.89L95.89 4.89L95.89 3.95L102.47 3.95L102.47 4.89L99.67 4.89L99.67 13.75ZM106.01 13.75L105.03 13.75L105.03 4.10L106.01 3.64L106.01 7.39L106.01 7.39Q106.67 6.43 107.94 6.43L107.94 6.43L107.94 6.43Q109.31 6.43 109.95 7.22L109.95 7.22L109.95 7.22Q110.59 8.02 110.59 9.79L110.59 9.79L110.59 13.75L109.61 13.75L109.61 9.38L109.61 9.38Q109.61 8.30 109.13 7.81L109.13 7.81L109.13 7.81Q108.65 7.31 107.86 7.31L107.86 7.31L107.86 7.31Q106.01 7.31 106.01 9.35L106.01 9.35L106.01 13.75ZM119.49 9.88L119.49 9.88L119.49 9.88Q119.49 10.26 119.46 10.57L119.46 10.57L114.39 10.57L114.39 10.57Q114.53 11.72 115.11 12.36L115.11 12.36L115.11 12.36Q115.68 13.01 116.61 13.01L116.61 13.01L116.61 13.01Q117.52 13.01 118.31 12.45L118.31 12.45L118.85 13.10L118.85 13.10Q117.81 13.92 116.56 13.92L116.56 13.92L116.56 13.92Q115.09 13.92 114.23 12.83L114.23 12.83L114.23 12.83Q113.36 11.75 113.36 10.16L113.36 10.16L113.36 10.16Q113.36 8.40 114.23 7.41L114.23 7.41L114.23 7.41Q115.09 6.43 116.56 6.43L116.56 6.43L116.56 6.43Q117.84 6.43 118.66 7.30L118.66 7.30L118.66 7.30Q119.49 8.18 119.49 9.88ZM114.37 9.69L114.37 9.69L118.50 9.69L118.50 9.69Q118.48 8.39 117.90 7.85L117.90 7.85L117.90 7.85Q117.32 7.31 116.56 7.31L116.56 7.31L116.56 7.31Q115.53 7.31 114.97 7.94L114.97 7.94L114.97 7.94Q114.42 8.57 114.37 9.69ZM124.60 13.92L124.60 13.92L124.60 13.92Q123.44 13.92 122.76 13.29L122.76 13.29L122.76 13.29Q122.08 12.67 122.08 11.49L122.08 11.49L122.08 11.49Q122.08 10.33 122.85 9.73L122.85 9.73L122.85 9.73Q123.62 9.13 124.77 9.13L124.77 9.13L124.77 9.13Q125.85 9.13 126.78 9.63L126.78 9.63L126.78 9.03L126.78 9.03Q126.78 7.28 125.22 7.28L125.22 7.28L125.22 7.28Q124.17 7.28 122.95 8.05L122.95 8.05L122.67 7.21L122.67 7.21Q123.97 6.43 125.31 6.43L125.31 6.43L125.31 6.43Q125.75 6.43 126.13 6.53L126.13 6.53L126.13 6.53Q126.50 6.64 126.87 6.90L126.87 6.90L126.87 6.90Q127.25 7.15 127.47 7.67L127.47 7.67L127.47 7.67Q127.69 8.18 127.69 8.90L127.69 8.90L127.69 13.75L126.78 13.75L126.78 13.05L126.78 13.05Q125.82 13.92 124.60 13.92ZM124.70 13.06L124.70 13.06L124.70 13.06Q125.89 13.06 126.78 11.96L126.78 11.96L126.78 10.57L126.78 10.57Q125.90 9.98 124.87 9.98L124.87 9.98L124.87 9.98Q124.05 9.98 123.52 10.37L123.52 10.37L123.52 10.37Q122.99 10.75 122.99 11.49L122.99 11.49L122.99 11.49Q122.99 12.21 123.44 12.64L123.44 12.64L123.44 12.64Q123.89 13.06 124.70 13.06ZM134.32 13.92L134.32 13.92L134.32 13.92Q132.62 13.92 132.62 12.21L132.62 12.21L132.62 7.48L130.93 7.48L130.93 6.59L132.62 6.59L132.62 4.13L133.60 3.64L133.60 6.59L136.00 6.59L136.00 7.48L133.60 7.48L133.60 11.79L133.60 11.79Q133.60 12.39 133.80 12.69L133.80 12.69L133.80 12.69Q134.01 12.99 134.65 12.99L134.65 12.99L134.65 12.99Q135.39 12.99 136.01 12.57L136.01 12.57L135.90 13.59L135.90 13.59Q135.30 13.92 134.32 13.92ZM144.00 6.43L144.00 6.43L144.00 6.43Q145.03 6.43 145.52 6.75L145.52 6.75L145.52 9.14L144.52 9.14L144.52 7.48L144.52 7.48Q144.27 7.43 143.93 7.43L143.93 7.43L143.93 7.43Q142.87 7.43 142.04 7.97L142.04 7.97L142.04 7.97Q141.20 8.51 141.20 9.45L141.20 9.45L141.20 12.87L143.35 12.87L143.35 13.75L138.70 13.75L138.70 12.87L140.18 12.87L140.18 7.48L138.70 7.48L138.70 6.59L141.15 6.59L141.15 7.85L141.15 7.85Q141.55 7.21 142.38 6.82L142.38 6.82L142.38 6.82Q143.21 6.43 144.00 6.43ZM153.99 9.88L153.99 9.88L153.99 9.88Q153.99 10.26 153.96 10.57L153.96 10.57L148.89 10.57L148.89 10.57Q149.03 11.72 149.60 12.36L149.60 12.36L149.60 12.36Q150.18 13.01 151.10 13.01L151.10 13.01L151.10 13.01Q152.01 13.01 152.81 12.45L152.81 12.45L153.34 13.10L153.34 13.10Q152.31 13.92 151.06 13.92L151.06 13.92L151.06 13.92Q149.59 13.92 148.72 12.83L148.72 12.83L148.72 12.83Q147.85 11.75 147.85 10.16L147.85 10.16L147.85 10.16Q147.85 8.40 148.72 7.41L148.72 7.41L148.72 7.41Q149.59 6.43 151.06 6.43L151.06 6.43L151.06 6.43Q152.33 6.43 153.16 7.30L153.16 7.30L153.16 7.30Q153.99 8.18 153.99 9.88ZM148.86 9.69L148.86 9.69L152.99 9.69L152.99 9.69Q152.98 8.39 152.40 7.85L152.40 7.85L152.40 7.85Q151.82 7.31 151.06 7.31L151.06 7.31L151.06 7.31Q150.02 7.31 149.47 7.94L149.47 7.94L149.47 7.94Q148.92 8.57 148.86 9.69Z"></path></g><!----><g data-v-423bf9ae="" id="48dca90b-62ae-4ad8-b788-ddc1aca1c3a7" transform="matrix(3.7444444444444445,0,0,3.7444444444444445,0.8611111111110858,0.06111111111113132)" stroke="none" fill="black"><path d="M413 26H32c-2 0-3 1-4 2s-2 2-2 4v225c0 2 1 4 2 5s2 1 4 1h381c1 0 3 0 4-1s1-3 1-5V32c0-2 0-3-1-4s-3-2-4-2zM238 178l-13 8-13 8v-16l-1-15 14 7 13 8zm41-39l-6 90h-98l-9-87h5l3 3v1c1 0 2 1 2 1l7 73h14l-4-68c3 0 5-1 7-2 1 0 2 0 2-1l4 71h35l3-78h9l-3 78h14l6-78c3 0 6-1 9-3zm-48-73c-3-3-6-4-10-4s-7 1-10 4c-2 3-4 6-4 10s1 7 4 10c3 2 6 4 10 4s7-2 10-4c2-3 4-6 4-10s-1-7-4-10zm-31 45v1c1 1 1 2 0 3-1 3-3 4-6 3h-4s-1 0-2-1c0 1 0 1-1 1-1 1-2 1-3 2 0 0-1 1-2 1-3 0-5-1-5-4v-1c-1-1-1-2-1-2 1-3 3-5 5-4h4c0-1 1 0 2 0 0-1 1-1 1-1l2-1c1-1 2-1 2-1 1-1 1-1 2-1 3-1 5 1 5 4l1 1zm29 1c1 0 1 1 1 1 1 0 1 0 2 1h3c2 0 4 2 4 5v1c0 2 1 4 3 6 1 1 3 2 6 2 1 0 2 0 3-1 2-1 3-1 3-2l2-2c2-1 5 0 6 2l2 2h1c1 1 2 1 3 1 2 0 4-1 5-2s2-3 2-5v-2-3c2-3 5-3 7-2 0 1 1 1 2 1h3c2 0 4-1 6-2 2-2 3-4 3-7 0-2-1-4-3-6s-4-3-6-3c-3 0-5 1-7 3-2 1-3 4-3 6l1 2v5c-2 2-4 3-7 2 0-1-1-1-1-1h-5c-1 1-2 1-2 2-1 1-1 1-2 1-2 2-5 1-6-1 0-1-1-1-1-2-1 0-1-1-1-1-1-1-2-2-2-3-1 1-2 1-3 1h-1c-3 0-5-2-5-4v-1c0-1 0-2 1-2 1-3 4-3 6-2l1 1c1 1 2 2 2 3 1-1 2-1 3-1h1c4 0 7-2 9-4s3-5 3-8c0-4-1-7-3-9s-5-3-9-3c-3 0-6 1-8 3s-4 5-4 9v2c1 1 1 2 0 3-1 2-4 3-6 2-1 0-1 0-2-1h-1c-2 0-4 1-6 2-1 2-2 4-2 6 0 1 0 1 1 2 0 1 1 2 1 3zm-71-11c-1-1-3-2-4-2s-3 1-4 2-1 2-1 3c0 2 0 3 1 4s3 2 4 2h2c2 1 4 3 3 6v2c0 3 1 5 2 7 2 1 4 2 7 2h3c1-1 2-1 2-2 1 0 2 0 3-1 2 0 5 2 5 5 0 2 1 4 3 6s4 3 7 3 5-1 7-3 3-5 3-7v-3l-1-1c0-1-1-3 0-4 1-2 3-4 6-3h1l2 1 1-1h3c2 1 4 4 3 6v2l-1 1c0 2 1 3 2 4v1c2 1 3 2 5 2s4-1 5-2c1-2 2-3 2-5v-3c-1 0-1-1-2-2l-1-1s-1 0-2-1h-1-2-2c-2-2-3-4-2-7v-2c1 0 1-1 1-2 0-2-1-4-3-6s-4-3-6-3h-3c0 1-1 1-2 1 0 1-1 1-2 1-2 0-4-2-4-5v-1c0-4-2-8-5-10-2-3-6-5-10-5s-8 2-10 5c-3 2-5 6-5 10 0 1 1 3 1 4s1 2 1 3c1 1 1 1 1 2 0 3-2 5-4 5h-2c0 1-1 1-1 1-3 0-5-3-5-5v-1c0-1 0-2-1-3zm-4-11c2 0 4 0 6 1 0-5 3-9 6-13 5-4 10-7 17-7 6 0 11 2 15 5 0-6 2-12 7-16 4-5 10-7 16-7s12 2 16 7h1c3 4 6 9 6 15 4-2 8-4 12-4 6 0 11 3 15 7 4 3 6 7 6 12 3-1 6-2 10-2 5 0 9 2 13 5 3 4 5 8 5 13s-2 10-5 13c-4 4-8 6-13 6-1 0-2 0-3-1-1 3-2 6-5 8-2 3-7 5-11 5-3 0-6-1-8-2l-2-1c-1 0-2 1-2 1h-1c-2 2-5 2-7 2-5 0-9-1-12-4 0 2-1 3-2 4h-1c-2 3-6 5-11 5-4 0-8-2-11-5l-2-2c-1 2-3 4-4 6-4 4-9 6-14 6s-10-2-13-5c-2-2-4-4-5-6-2 0-3 1-5 1-5 0-10-3-13-6-4-3-6-8-6-13-2-1-4-2-5-3-3-3-4-7-4-11s1-7 4-10c2-2 6-4 10-4zm-22 247c-7 0-13-6-13-13s6-13 13-13h180c8 0 13 6 13 13s-5 13-13 13H132zM32 0h381c8 0 16 4 22 9 6 6 10 14 10 23v225c0 9-4 17-10 23s-14 9-22 9H32c-9 0-17-3-23-9-5-6-9-14-9-23V32c0-9 4-17 9-23 6-5 14-9 23-9z"></path></g><!----></svg>